<svg xmlns="http://www.w3.org/2000/svg" viewBox="0 0 120 120" role="img" aria-labelledby="title desc">
  <title id="title">Загрузка</title>
  <desc id="desc">Иконка лапки для состояния загрузки</desc>
  <g fill="#2F8CFF">
    <ellipse cx="31" cy="38" rx="12" ry="15" transform="rotate(-22 31 38)"/>
    <ellipse cx="53" cy="24" rx="12" ry="15" transform="rotate(-8 53 24)"/>
    <ellipse cx="75" cy="24" rx="12" ry="15" transform="rotate(8 75 24)"/>
    <ellipse cx="97" cy="38" rx="12" ry="15" transform="rotate(22 97 38)"/>
    <path d="M60 50c-17.1 0-31 13.9-31 31 0 13.5 11 24.5 24.5 24.5 4.2 0 8.2-1.1 11.7-3.1 3.5 2 7.5 3.1 11.7 3.1C90.5 105.5 101.5 94.5 101.5 81c0-17.1-13.9-31-31-31H60z"/>
  </g>
</svg>
